<svg width="31" height="30" viewBox="0 0 31 30" fill="none" xmlns="http://www.w3.org/2000/svg">
<path d="M30.7372 11.5799L30.7375 11.5798L30.7279 11.5009C30.7278 11.4995 30.7277 11.4985 30.7275 11.4971C30.7274 11.496 30.7273 11.4949 30.7271 11.4938L30.6913 11.1968C30.6842 11.1372 30.676 11.0693 30.6666 10.9917L30.6591 10.93L30.6439 10.9319C30.2681 8.7946 29.2357 6.76629 27.6368 5.03441C26.0454 3.31083 23.9778 1.94997 21.6577 1.09894C19.6698 0.369775 17.5605 0 15.3887 0C12.4567 0 9.60916 0.689575 7.15404 1.99413C2.41969 4.50962 -0.372486 9.13331 0.0401993 13.7736C0.253815 16.1748 1.19451 18.4605 2.76068 20.3838C4.2348 22.194 6.22892 23.6548 8.52737 24.6083C9.9406 25.1945 11.3379 25.4707 12.8174 25.7632L12.9906 25.7975C13.398 25.8781 13.5075 25.9889 13.5358 26.0327C13.5881 26.1142 13.5607 26.2747 13.5397 26.3631C13.5204 26.4447 13.5005 26.526 13.4805 26.6075C13.3217 27.2553 13.1574 27.9252 13.2864 28.6639C13.4348 29.5129 13.965 29.9999 14.7411 30C14.7412 30 14.7412 30 14.7413 30C15.5762 30 16.5263 29.44 17.155 29.0695L17.239 29.0201C18.7388 28.1393 20.1519 27.1457 21.2153 26.3785C23.5423 24.6996 26.1798 22.7966 28.1572 20.3347C30.1485 17.8552 31.0865 14.6689 30.7372 11.5799ZM9.5943 16.2776H6.93637C6.5347 16.2776 6.20908 15.952 6.20908 15.5503V9.97136C6.20908 9.56969 6.5347 9.24407 6.93637 9.24407C7.33804 9.24407 7.66366 9.56969 7.66366 9.97136V14.823H9.5942C9.99587 14.823 10.3215 15.1486 10.3215 15.5503C10.3216 15.952 9.99597 16.2776 9.5943 16.2776ZM12.367 15.5306C12.367 15.9322 12.0414 16.2578 11.6398 16.2578C11.2381 16.2578 10.9125 15.9322 10.9125 15.5306V9.95162C10.9125 9.54995 11.2381 9.22433 11.6398 9.22433C12.0414 9.22433 12.367 9.54995 12.367 9.95162V15.5306ZM18.9411 15.5306C18.9411 15.8457 18.7382 16.125 18.4385 16.2223C18.3645 16.2463 18.2887 16.258 18.2139 16.258C17.9855 16.258 17.7648 16.15 17.6253 15.9579L15.0063 12.3508V15.5307C15.0063 15.9323 14.6807 16.258 14.279 16.258C13.8773 16.258 13.5517 15.9323 13.5517 15.5307V10.1113C13.5517 9.79619 13.7546 9.51691 14.0544 9.41955C14.3542 9.3223 14.6824 9.4289 14.8676 9.68398L17.4865 13.291V9.95162C17.4865 9.54995 17.8122 9.22433 18.2138 9.22433C18.6155 9.22433 18.9411 9.54995 18.9411 9.95162V15.5306ZM24.2407 16.1434H20.6411C20.2394 16.1434 19.9138 15.8177 19.9138 15.4161V12.6267V9.83712C19.9138 9.43545 20.2394 9.10983 20.6411 9.10983H24.129C24.5307 9.10983 24.8563 9.43545 24.8563 9.83712C24.8563 10.2388 24.5307 10.5644 24.129 10.5644H21.3684V11.8994H23.6087C24.0103 11.8994 24.336 12.225 24.336 12.6267C24.336 13.0284 24.0103 13.354 23.6087 13.354H21.3684V14.6888H24.2407C24.6424 14.6888 24.968 15.0144 24.968 15.4161C24.968 15.8177 24.6424 16.1434 24.2407 16.1434Z" fill="white"/>
</svg>
